<svg xmlns="http://www.w3.org/2000/svg" viewBox="0 0 220 270" fill="none" aria-label="Amora">
  <path d="M110 16 C140 30 166 74 166 118 C166 162 140 208 110 224 C80 208 54 162 54 118 C54 74 80 30 110 16 Z" stroke="#7fb8ac" stroke-width="2.2"/>
  <path d="M110 16 C118 21 120 33 110 42 C100 33 102 21 110 16" stroke="#7fb8ac" stroke-width="1.7"/>
  <path d="M110 42 C115 47 115 56 110 60 C105 56 105 47 110 42" stroke="#7fb8ac" stroke-width="1.4"/>
  <circle cx="110" cy="9" r="2.3" fill="#7fb8ac"/>
  <path d="M62 196 C66 168 58 138 82 112 C96 97 102 78 110 60" stroke="#7fb8ac" stroke-width="2" stroke-linecap="round"/>
  <path d="M158 196 C154 168 162 138 138 112 C124 97 118 78 110 60" stroke="#7fb8ac" stroke-width="2" stroke-linecap="round"/>
  <path d="M110 130 C110 155 110 175 110 204" stroke="#7fb8ac" stroke-width="1.8" stroke-linecap="round"/>
  <path d="M110 130 C94 152 76 170 62 196" stroke="#7fb8ac" stroke-width="1.5" stroke-linecap="round"/>
  <path d="M110 130 C126 152 144 170 158 196" stroke="#7fb8ac" stroke-width="1.5" stroke-linecap="round"/>
  <path d="M54 118 C36 114 18 126 10 140 C4 153 10 167 20 163" stroke="#7fb8ac" stroke-width="1.9" stroke-linecap="round"/>
  <path d="M20 163 C10 169 8 181 16 186 C23 190 30 183 24 177 C18 171 20 163 28 162" stroke="#7fb8ac" stroke-width="1.7" stroke-linecap="round"/>
  <path d="M54 118 C40 116 28 124 24 136 C20 147 27 158 35 154" stroke="#7fb8ac" stroke-width="1.5" stroke-linecap="round"/>
  <path d="M35 154 C28 158 26 168 33 172 C39 174 44 167 40 162" stroke="#7fb8ac" stroke-width="1.3" stroke-linecap="round"/>
  <circle cx="46" cy="93" r="2.1" fill="#7fb8ac"/>
  <path d="M166 118 C184 114 202 126 210 140 C216 153 210 167 200 163" stroke="#7fb8ac" stroke-width="1.9" stroke-linecap="round"/>
  <path d="M200 163 C210 169 212 181 204 186 C197 190 190 183 196 177 C202 171 200 163 192 162" stroke="#7fb8ac" stroke-width="1.7" stroke-linecap="round"/>
  <path d="M166 118 C180 116 192 124 196 136 C200 147 193 158 185 154" stroke="#7fb8ac" stroke-width="1.5" stroke-linecap="round"/>
  <path d="M185 154 C192 158 194 168 187 172 C181 174 176 167 180 162" stroke="#7fb8ac" stroke-width="1.3" stroke-linecap="round"/>
  <circle cx="174" cy="93" r="2.1" fill="#7fb8ac"/>
  <circle cx="46" cy="180" r="2.1" fill="#7fb8ac"/>
  <circle cx="174" cy="180" r="2.1" fill="#7fb8ac"/>
</svg>
