<svg xmlns="http://www.w3.org/2000/svg" viewBox="0 0 100 108" fill="#efe8d7" aria-label="Amora">
  <!-- Heart at center (outline) -->
  <path d="M50 56 C46 49 36 46 36 38 C36 32 40 28 45 28 C48 28 50 30 50 30 C50 30 52 28 55 28 C60 28 64 32 64 38 C64 46 54 49 50 56Z" fill="none" stroke="#efe8d7" stroke-width="2.5" stroke-linejoin="round"/>
  <!-- Trunk above heart -->
  <line x1="50" y1="28" x2="50" y2="19" stroke="#efe8d7" stroke-width="3" stroke-linecap="round"/>
  <!-- Center-top bud -->
  <line x1="50" y1="19" x2="50" y2="9" stroke="#efe8d7" stroke-width="1.6" stroke-linecap="round"/>
  <path d="M50 9 C48 7 47 5 49 4 C51 3 52 5 51 8Z"/>
  <path d="M50 9 C52 7 53 5 51 4 C49 3 48 5 49 8Z"/>
  <!-- Center-left branch -->
  <path d="M49 20 C44 14 36 10 28 6" stroke="#efe8d7" stroke-width="2.2" fill="none" stroke-linecap="round"/>
  <path d="M28 6 C25 4 24 2 26 1 C28 0 29 2 28 6Z"/>
  <path d="M28 6 C26 4 27 2 29 1 C31 0 30 3 28 6Z"/>
  <!-- Center-right branch -->
  <path d="M51 20 C56 14 64 10 72 6" stroke="#efe8d7" stroke-width="2.2" fill="none" stroke-linecap="round"/>
  <path d="M72 6 C75 4 76 2 74 1 C72 0 71 2 72 6Z"/>
  <path d="M72 6 C74 4 73 2 71 1 C69 0 70 3 72 6Z"/>
  <!-- Outer-left branch -->
  <path d="M47 21 C38 14 26 10 14 6" stroke="#efe8d7" stroke-width="1.8" fill="none" stroke-linecap="round"/>
  <path d="M14 6 C11 4 10 2 12 1 C14 0 15 2 14 5Z"/>
  <path d="M14 6 C12 4 13 2 15 2 C17 1 16 4 14 6Z"/>
  <!-- Outer-right branch -->
  <path d="M53 21 C62 14 74 10 86 6" stroke="#efe8d7" stroke-width="1.8" fill="none" stroke-linecap="round"/>
  <path d="M86 6 C89 4 90 2 88 1 C86 0 85 2 86 5Z"/>
  <path d="M86 6 C88 4 87 2 85 2 C83 1 84 4 86 6Z"/>
  <!-- Far-left branch -->
  <path d="M46 23 C34 16 20 12 6 9" stroke="#efe8d7" stroke-width="1.4" fill="none" stroke-linecap="round"/>
  <path d="M6 9 C4 8 3 6 5 5 C6 4 8 5 7 8Z"/>
  <path d="M6 9 C4 7 5 5 7 5 C9 5 8 7 6 9Z"/>
  <!-- Far-right branch -->
  <path d="M54 23 C66 16 80 12 94 9" stroke="#efe8d7" stroke-width="1.4" fill="none" stroke-linecap="round"/>
  <path d="M94 9 C96 8 97 6 95 5 C94 4 92 5 93 8Z"/>
  <path d="M94 9 C96 7 95 5 93 5 C91 5 92 7 94 9Z"/>
  <!-- Trunk below heart -->
  <line x1="50" y1="56" x2="50" y2="68" stroke="#efe8d7" stroke-width="3.5" stroke-linecap="round"/>
  <!-- Center root -->
  <path d="M50 68 L50 90" stroke="#efe8d7" stroke-width="2" stroke-linecap="round"/>
  <path d="M50 90 L50 104" stroke="#efe8d7" stroke-width="1.3" stroke-linecap="round"/>
  <!-- Center-left root -->
  <path d="M48 70 C42 76 34 81 24 87" stroke="#efe8d7" stroke-width="2" fill="none" stroke-linecap="round"/>
  <path d="M24 87 C18 91 13 95 8 100" stroke="#efe8d7" stroke-width="1.4" fill="none" stroke-linecap="round"/>
  <!-- Center-right root -->
  <path d="M52 70 C58 76 66 81 76 87" stroke="#efe8d7" stroke-width="2" fill="none" stroke-linecap="round"/>
  <path d="M76 87 C82 91 87 95 92 100" stroke="#efe8d7" stroke-width="1.4" fill="none" stroke-linecap="round"/>
  <!-- Outer-left root -->
  <path d="M46 72 C37 78 26 83 14 90" stroke="#efe8d7" stroke-width="1.7" fill="none" stroke-linecap="round"/>
  <path d="M14 90 C9 94 5 97 2 101" stroke="#efe8d7" stroke-width="1.2" fill="none" stroke-linecap="round"/>
  <!-- Outer-right root -->
  <path d="M54 72 C63 78 74 83 86 90" stroke="#efe8d7" stroke-width="1.7" fill="none" stroke-linecap="round"/>
  <path d="M86 90 C91 94 95 97 98 101" stroke="#efe8d7" stroke-width="1.2" fill="none" stroke-linecap="round"/>
  <!-- Far-left tendril -->
  <path d="M44 74 C33 81 20 86 7 92" stroke="#efe8d7" stroke-width="1.2" fill="none" stroke-linecap="round"/>
  <path d="M7 92 C4 94 2 97 1 100" stroke="#efe8d7" stroke-width="1" fill="none" stroke-linecap="round"/>
  <!-- Far-right tendril -->
  <path d="M56 74 C67 81 80 86 93 92" stroke="#efe8d7" stroke-width="1.2" fill="none" stroke-linecap="round"/>
  <path d="M93 92 C96 94 98 97 99 100" stroke="#efe8d7" stroke-width="1" fill="none" stroke-linecap="round"/>
  <!-- Dots -->
  <circle cx="3" cy="102" r="1.8"/>
  <circle cx="97" cy="102" r="1.8"/>
</svg>
